# 3ds Max Wavefront OBJ Exporter v0.97b - (c)2007 guruware
# File Created: 07.12.2011 18:26:12

#
# object Box002
#

v  338.5880 -1.9276 34.4029
v  338.5880 -1.9276 -33.9067
v  407.2182 -1.9276 -33.9067
v  407.2182 -1.9276 34.4029
v  347.2252 10.7302 25.7657
v  398.5810 10.7302 25.7657
v  398.5810 10.7302 -25.2694
v  347.2252 10.7302 -25.2694
v  407.2182 69.4756 34.4029
v  338.5880 69.4756 34.4029
v  407.2182 69.4756 -33.9067
v  338.5880 69.4756 -33.9067
v  398.5810 69.4756 25.7657
v  347.2252 69.4756 25.7657
v  398.5810 69.4756 -25.2694
v  347.2252 69.4756 -25.2694
# 16 vertices

vn 0.0000 -1.0000 -0.0000
vn 0.0000 1.0000 -0.0000
vn 0.0000 0.0000 1.0000
vn 1.0000 0.0000 -0.0000
vn 0.0000 0.0000 -1.0000
vn -1.0000 0.0000 -0.0000
# 6 vertex normals

g Box002
f 1//1 2//1 3//1 
f 3//1 4//1 1//1 
f 5//2 6//2 7//2 
f 7//2 8//2 5//2 
f 1//3 4//3 9//3 
f 9//3 10//3 1//3 
f 4//4 3//4 11//4 
f 11//4 9//4 4//4 
f 3//5 2//5 12//5 
f 12//5 11//5 3//5 
f 2//6 1//6 10//6 
f 10//6 12//6 2//6 
f 10//2 9//2 13//2 
f 13//2 14//2 10//2 
f 9//2 11//2 15//2 
f 15//2 13//2 9//2 
f 11//2 12//2 16//2 
f 16//2 15//2 11//2 
f 12//2 10//2 14//2 
f 14//2 16//2 12//2 
f 14//5 13//5 6//5 
f 6//5 5//5 14//5 
f 13//6 15//6 7//6 
f 7//6 6//6 13//6 
f 15//3 16//3 8//3 
f 8//3 7//3 15//3 
f 16//4 14//4 5//4 
f 5//4 8//4 16//4 
# 28 faces

