# Blender v2.78 (sub 0) OBJ File: ''
# www.blender.org
mtllib House.mtl
o Cube_Cube.001
v -0.200678 -6.840313 6.840313
v -0.200678 -4.724765 6.840313
v -0.200678 -4.724765 4.439278
v -0.200678 -0.649252 2.597713
v -0.200678 -0.649252 -2.021458
v -0.200678 5.880214 -2.021458
v -0.200678 6.840313 -6.840313
v -0.200678 1.902751 -6.840313
v -0.200678 1.902751 -3.969497
v -0.200678 -4.626715 -3.969497
v -0.200678 -4.626715 -6.840313
v -0.200678 -6.840313 -6.840313
v -0.200678 6.840313 6.840313
v -0.200678 5.880214 2.597713
v -0.200678 1.804701 4.439278
v -0.200678 1.804701 6.840313
v 0.200678 -6.840313 -6.840313
v 0.200678 -6.840313 6.840313
v 0.200678 -4.724765 6.840313
v 0.200678 1.804701 6.840313
v 0.200678 6.840313 6.840313
v 0.200678 6.840313 -6.840313
v 0.200678 1.902751 -6.840313
v 0.200678 -4.626715 -6.840313
v 0.200678 1.804701 4.439278
v 0.200678 -4.724765 4.439278
v 0.200678 -0.649252 2.597713
v 0.200678 5.880214 2.597713
v 0.200678 5.880214 -2.021458
v 0.200678 -4.626715 -3.969497
v 0.200678 1.902751 -3.969497
v 0.200678 -0.649252 -2.021458
vn -1.0000 0.0000 0.0000
vn 0.0000 -1.0000 0.0000
vn 0.0000 0.0000 1.0000
vn 0.0000 1.0000 0.0000
vn 0.0000 0.0000 -1.0000
vn 1.0000 0.0000 0.0000
usemtl None
s off
f 5//1 9//1 10//1
f 13//1 14//1 15//1
f 17//2 1//2 12//2
f 19//3 1//3 18//3
f 21//3 16//3 20//3
f 7//4 21//4 22//4
f 7//5 23//5 8//5
f 11//5 17//5 12//5
f 21//6 25//6 28//6
f 17//6 30//6 18//6
f 30//5 9//5 31//5
f 8//2 31//2 9//2
f 24//4 10//4 30//4
f 3//3 25//3 15//3
f 20//2 15//2 25//2
f 2//4 26//4 3//4
f 5//3 29//3 6//3
f 28//2 6//2 29//2
f 4//4 32//4 5//4
f 27//5 14//5 28//5
f 12//1 1//1 10//1
f 3//1 4//1 5//1
f 1//1 2//1 3//1
f 10//1 11//1 12//1
f 7//1 8//1 9//1
f 10//1 1//1 3//1
f 6//1 7//1 9//1
f 10//1 3//1 5//1
f 5//1 6//1 9//1
f 13//1 7//1 6//1
f 14//1 4//1 15//1
f 13//1 6//1 14//1
f 15//1 16//1 13//1
f 4//1 3//1 15//1
f 17//2 18//2 1//2
f 19//3 2//3 1//3
f 21//3 13//3 16//3
f 7//4 13//4 21//4
f 7//5 22//5 23//5
f 11//5 24//5 17//5
f 21//6 20//6 25//6
f 25//6 26//6 27//6
f 28//6 29//6 21//6
f 25//6 27//6 28//6
f 29//6 22//6 21//6
f 19//6 18//6 26//6
f 17//6 24//6 30//6
f 31//6 23//6 22//6
f 31//6 22//6 29//6
f 32//6 27//6 26//6
f 31//6 29//6 32//6
f 30//6 31//6 32//6
f 26//6 18//6 30//6
f 30//6 32//6 26//6
f 30//5 10//5 9//5
f 8//2 23//2 31//2
f 24//4 11//4 10//4
f 3//3 26//3 25//3
f 20//2 16//2 15//2
f 2//4 19//4 26//4
f 5//3 32//3 29//3
f 28//2 14//2 6//2
f 4//4 27//4 32//4
f 27//5 4//5 14//5
